<svg version="1.2" xmlns="http://www.w3.org/2000/svg" viewBox="0 0 500 500" width="500" height="500"><defs><linearGradient id="P" gradientUnits="userSpaceOnUse"/><linearGradient id="g1" x2="1" href="#P" gradientTransform="matrix(-59.787,27.278,44.606,97.766,379.627,176.829)"><stop stop-color="#fff"/><stop offset="1" stop-color="#ced2f7"/></linearGradient><linearGradient id="g2" x2="1" href="#P" gradientTransform="matrix(-40.253,18.155,29.346,65.066,376.921,185.929)"><stop stop-color="#4a576a"/><stop offset="1" stop-color="#384457"/></linearGradient></defs><style>.a{fill:#754331}.b{fill:#ba6b4e}.c{fill:#995741}.d{fill:#20222b}.e{fill:#ffb1a4}.f{fill:#3b528c}.g{fill:#263459}.h{fill:#819de3}.i{fill:#d9e3fc}.j{fill:#ffd2ba}.k{fill:#82555e}.l{fill:#fff}.m{fill:#5e3943}.n{fill:#4f3038}.o{fill:#ffb8a3}.p{fill:#db8472}.q{fill:#c76255}.r{fill:#d67061}.s{fill:#2eec4f}.t{fill:#0eb82a}.u{fill:none;stroke:#fff;stroke-miterlimit:10;stroke-width:.8}.v{fill:#a7b2d6}.w{fill:url(#g1)}.x{fill:url(#g2)}.y{fill:#283447}</style><path class="a" d="m120.6 403.2c0 0-0.5-0.3-1 0.1-0.6 0.3-1.9 1.7-2.2 2.2-0.4 0.5-0.2 0.8-0.2 1.4 0.1 0.6 2.2 7.7 2.6 8.9 0.4 1.1 2.1 1.8 2 2.1-0.1 0.3-0.3 0.7-0.4 1.4 0 0.6 0.5 4.6 0.5 9.2-0.1 4.7-0.7 9.8 1.7 14.4 2.4 4.6 4.7 7.5 8 9.9 3.2 2.4 5.1 3.1 5.8 3.3 0.7 0.1 1-0.1 1.1-0.3 0.1-0.3 0.5-1.3 0.4-1.7-0.1-0.4-18.3-50.9-18.3-50.9z"/><path class="b" d="m143.4 407.8c0 0-0.3 7.3-2 16.8-1.7 9.6-2.6 14.4-2.6 17.7-0.1 3.2 0.9 12-0.2 12.1-1.1 0.2-11.7-7.7-13.6-16.5-2-8.7 0.6-13.8-1.1-21-1.8-7.2-4.1-12.4-3.7-13.9 0.5-1.4 9.8-8 14.1-9.4 4.4-1.3 9.1 14.2 9.1 14.2z"/><path class="c" d="m143.4 407.8c0 0-0.2 6.3-1.6 14.7-10.4-11.8-10.3-23.7-9.8-27.9 0.9-0.4 1.7-0.8 2.3-1 4.4-1.3 9.1 14.2 9.1 14.2z"/><path class="a" d="m196.1 387.6c0 0-0.3-0.3-0.9-0.2-0.5 0.1-1.9 0.9-2.4 1.2-0.4 0.2-0.3 0.5-0.5 1-0.1 0.5-0.4 6.9-0.4 7.9 0 1.1 1.2 2.2 1 2.4-0.1 0.2-0.4 0.4-0.6 1-0.3 0.5-1 3.8-2.3 7.6-1.4 3.7-3.4 7.7-2.7 12.1 0.7 4.4 1.8 7.4 3.7 10.2 1.9 2.9 3.3 4 3.8 4.3 0.5 0.3 0.8 0.2 0.9 0.1 0.2-0.2 0.8-0.9 0.8-1.2 0.1-0.4-0.4-46.4-0.4-46.4z"/><path class="b" d="m213.3 397.8c0 0-2.3 5.8-6.4 13-4.1 7.2-6.2 10.9-7.1 13.5-1 2.7-2.7 10-3.6 9.8-0.9-0.2-7.2-9.5-6.4-17.1 0.9-7.6 4.5-11.1 5.1-17.4 0.6-6.3 0.2-11.2 0.9-12.2 0.8-1.1 10.2-3.8 14.1-3.7 3.9 0.2 3.4 14.1 3.4 14.1z"/><path class="c" d="m213.3 397.8c0 0-2 5-5.5 11.4-5.1-12.5-1.6-22.1 0-25.3 0.8-0.1 1.5-0.2 2.1-0.2 3.9 0.2 3.4 14.1 3.4 14.1z"/><path class="d" d="m348.1 243.6c-2 2.8-11 5.5-15.3 4.7l-2.1-26.5c0 0 17.3 5.7 17.4 21.8z"/><path class="e" d="m334.7 221.5c0 0 4.7 16.5 1.6 29.9l-62.7-21.9-0.3-3z"/><path class="f" d="m337.4 246.6l-1.2 7.1c0 0-0.4 6.1-0.4 6.7 0.1 0.5 1.4 2.5 1 2.9-0.4 0.3-0.9 1-0.9 1 0 0 0.6 2.2 0.4 2.8-0.2 0.7-0.8 1.7-0.8 1.7 0 0-2.4 41.7-9.9 70.5-7.5 28.7-13.2 35.3-15.1 36.4-1.9 1.2-34.6 4.7-62.2 12.1-27.5 7.4-34.9 12.7-34.9 12.7 0 0-1.9-12.4-1.3-15.7 0.6-3.2 4.1-6.7 5.5-6.8 1.3-0.1 3.8 0.2 6.7-0.6 2.9-0.7 29.1-14.2 38.4-19.3 9.3-5 14.9-6.1 17.2-6 2.4 0.2 8 2.3 8 2.3 0 0 0.5-2.5 1.5-2.7 1.1-0.2 3.5-0.4 3.6-1.2 0-0.8-4.7-62.9-4.7-62.9 0 0-35.6 46.3-40.2 52.7-4.7 6.5-12.4 7.6-20.6 11.6-49.7 24.4-62.4 35.4-69 43.3-6.6 8-5.2 8.2-6.7 8.6-1.5 0.4-6.1 0.5-8.1-0.8-2-1.3-5.6-13.9-5.3-16.4 0.2-2.5 0.6-5.7 1.6-6.1 1.1-0.5 4.1-0.6 5.5-1.8 1.4-1.3 14.1-12 23.5-23 9.4-11 15.9-20.2 23.7-23.1 7.7-2.9 20.7-6 22-7.4 1.2-1.3 0.7-5.3 2.1-6 1.5-0.7 3.8-0.7 4.5-1.9 0.6-1.2 16-50.1 24.1-65.3 8.2-15.2 19.7-24.8 19.7-24.8 0 0 48.8 3.5 72.3 19.4z"/><path class="g" d="m280.6 229l0.5 7c-10.5 2.5-20.5 4.4-27.9 4 4.9-6.3 9.4-10.6 11.1-12.1l4.4-0.4c2.8 0.3 6.9 0.7 11.9 1.5z"/><path class="g" d="m265.2 227.2c1.2 0.1 35.1 2.7 59.6 12.8 7.3 3.3 11.2 6.2 12.5 7.3l-1.1 6.4c0 0-0.1 1-0.2 2.3-4.1-2.9-27.7-18.4-73.7-21.1z"/><path class="g" d="m212 385.1l0.4 0.2c1.6-2.7 4.6-3.1 7.8-3.6 1.1-0.1 2.2-0.3 3.3-0.5 2.5-0.6 13.9-6.1 25-11.3 8.9-4.2 17.3-8.2 21-9.7 4.8-1.9 11.1-2.3 18.8-1.3 0.5 0.1 0.6 0.1 0.7 0.1 0.6-0.1 1.9-2.6 2.2-3.8q0-0.2 0.2-0.3c0.4-0.2 1.3 0.1 2 0.3 0.7 0.2 1.3 0.4 1.7 0.3 1.6-0.4 1.2-7.4 1.2-7.7-0.2-3.4-3.7-60.4-3.9-63.4 1.5-1.2 3.4-2.8 5.6-5.5 0.7-0.2 7.7-1.8 12.1-8.5 4.6-7.1 8.8-27.4 8.8-27.6l-0.5-0.1c0 0.2-4.2 20.4-8.7 27.4-3.7 5.7-9.3 7.7-11.2 8.2q0 0 0 0c6.1-8.1 12.7-36.6 12.9-37.8l-0.4-0.2c-0.1 0.3-6.9 29.7-12.9 37.7-2.8 3.6-5 5.3-6.8 6.6-1.4 1.1-2.5 1.9-3.2 3.3q0.2-0.3 0.2-0.3 0 0 0.1 0.8c0.6-1.4 1.7-2.3 3.2-3.4q0.2-0.1 0.3-0.3c0.4 5.6 3.7 59.9 3.9 63.1 0.2 4.1-0.2 7.1-0.8 7.2-0.2 0.1-0.9-0.1-1.4-0.3-0.9-0.3-1.8-0.6-2.4-0.3q-0.4 0.2-0.5 0.6c-0.4 1.5-1.5 3.4-1.8 3.5q-0.1 0-0.5-0.1c-7.8-1-14.2-0.6-19.1 1.4-3.7 1.4-12.1 5.4-21 9.6-11 5.3-22.5 10.7-24.9 11.3-1.1 0.2-2.2 0.4-3.3 0.5-3.2 0.5-6.3 0.9-8 3.7q-0.1 0.1-0.1 0.2zm-67.7-2.5c1.1-0.4 2.1-0.9 2.9-1.6 1.3-1 5.5-5.2 11.3-10.8 6.6-6.6 14.9-14.8 23.1-22.6 13.3-12.6 28.9-17.8 34.1-19.5 0.8-0.2 1.4-0.4 1.6-0.5 1.9-0.9 4.8-2.9 4.7-4.8-0.1-0.9 1.3-3.8 4.1-9.9 3.1-6.6 7.4-15.5 11.5-26 4.7-12.1 13.7-26.3 25.3-39.9l0.2-0.3c2.6-3 8.5-14.3 8.6-14.4l0.4 0.2c-0.1 0.3-3.3 6.4-6 10.8 2.4 0.1 15.1 0.7 20.6-0.2 5.9-1 10.7-6.7 10.7-6.7l0.4 0.3c-0.1 0.1-4.9 5.9-11 6.9q-1 0.2-2.3 0.3c-6.5 0.5-17.5-0.1-18.7-0.1q-0.6 0.8-1.1 1.6c2.5 0.2 15.4 1.3 22 0.1 8.7-1.5 13.5-7.8 13.5-7.9l0.4 0.3c0 0.1-4.9 6.6-13.8 8.1q-1.3 0.2-2.8 0.3c-7.3 0.6-18.2-0.3-19.6-0.4q-0.5 0.7-0.9 1.2l-0.2 0.2c-11.5 13.6-20.5 27.7-25.3 39.8-4.1 10.5-8.3 19.4-11.4 26-2.5 5.1-4.2 8.9-4.2 9.7 0.2 2.1-2.8 4.3-4.9 5.2q-0.4 0.2-1.7 0.6c-5.1 1.7-20.6 6.8-33.8 19.4-8.2 7.8-16.5 15.9-23.2 22.5-5.8 5.7-10 9.8-11.3 10.9-0.8 0.7-1.9 1.2-3 1.7-2.4 1-4.9 2.1-5.7 6.4h-0.1q-0.1-0.5-0.2-1c1.1-3.8 3.6-4.9 5.8-5.9zm180.5-127.4c-0.9-2.5-0.7-8.8-0.6-9h0.5c-0.1 0-0.3 6.4 0.6 8.9 0.5 1.5 5.6 9.1 11 10.8q0 0.3 0 0.6c-5.8-1.7-11-10-11.5-11.3zm2.7 0.8q-0.3-0.4-0.5-0.7c-1.1-1.6-1-8.4-1-8.6h0.5c-0.1 1.9 0.1 7.1 0.9 8.3q0.2 0.3 0.5 0.7c1.4 2.2 4.6 7.1 8.1 8.4q-0.1 0.2-0.1 0.2c0 0 0 0.1 0.1 0.3-3.7-1.3-7.1-6.4-8.5-8.6z"/><path class="f" d="m336.4 252.7c0 0-23.6-18.5-74.4-21.5l2.9-7.8c54.5 3.6 72.6 20.5 72.6 20.5z"/><path class="b" d="m336.5 254.4c0 0-23.5-18.5-74.3-21.5l2.8-7.8c54.6 3.7 72.6 20.6 72.6 20.6z"/><path class="f" d="m295.8 228.3c0 0-1.2 7.3-3.5 11.8l-3.3-1.1c0 0 3.5-7.9 3.1-12.5z"/><path class="h" d="m215.4 379.3c0 0-1.1-0.5-2.6 0.4-1.6 0.9-2.8 1.8-3.8 2.4-1 0.7-1.5 1.1-1.7 3.4-0.2 2.2 0 11.7 0.5 13.8 0.5 2.1 1.7 3.1 2.3 3.2 0.7 0.1 2.1-0.3 3.5-1 1.4-0.6 2.7-1.9 2.3-2.4-1.9-1-3.8-11-0.5-19.8z"/><path class="h" d="m150.8 404c0 0-5.8-0.4-6.9-2.9-1-2.5-4.8-11.3-5.2-16.9 0 0-0.4-0.4-1.2 0.4-0.8 0.9-4.4 6.3-4.7 6.9-0.2 0.6-0.2 1.9 0 2.8 0.2 0.8 1.7 9.2 6.1 14.2 2.1 2.3 4.8 2.8 5.6 2.5 0.8-0.4 5.6-5.5 5.9-5.9 0.4-0.4 0.4-1.1 0.4-1.1z"/><path class="i" d="m321.9 247.1c0 0-8-4.3-15.8-5.8-1-0.3-0.9-0.9-0.7-1.6 0.2-0.8 1.7-5.8 2.1-7 0.5-1.2 1.6-1 1.6-1 7.8 1.5 15.8 5.8 15.8 5.8 0 0 0.9 0.5 0.6 1.7-0.2 1.2-2 6.6-2.2 7.1-0.2 0.5-0.7 1.2-1.4 0.8z"/><path class="f" d="m334.9 242.8c0 0-0.7 6.8-3.2 11.1l-3.2-1.4c0 0 2.9-7.2 2.9-11.8z"/><path class="g" d="m255 270.8c0 0-8.4 3.7-17.4 2.8 2.4 1.3 11.4 3.1 17.4-2.8z"/><path class="g" d="m228.9 324.4c0 0-6.2 0.3-10.6-3.6 0.7 1.9 4.6 6.6 10.6 3.6z"/><path class="g" d="m224.2 329.9c0 0-5.1-1.9-6.6-6.7-0.5 1.8 0.3 7.1 6.6 6.7z"/><path class="g" d="m302.6 355.7c0 0-6.3 0.3-10.6-3.7 0.6 2 4.5 6.7 10.6 3.7z"/><path class="g" d="m298.3 362.8c0 0-5.2-1.9-6.7-6.7-0.4 1.8 0.3 7.1 6.7 6.7z"/><path class="g" d="m288.3 287.9c0.6-0.8 1.7-2.3 3.8-3.5 2.9-1.8 5.9-6 5.9-6 0 0-2.8 11.7-8.8 21.1-0.5-6-0.8-10.4-0.9-11.6z"/><path class="j" d="m268.5 123.5l5.9 12.6-35.3-3.6c0 0 9.1-3.5 7.5-9.1-1.7-5.5-3.7-12.8-3.7-12.8z"/><path class="e" d="m244.7 116.8c-1-3.4-1.8-6.2-1.8-6.2l25.6 12.9 5.9 12.6-7.1-0.7q-0.8-0.3-1.7-0.7c-11.9-5.2-18.1-13.2-20.9-17.9z"/><path class="j" d="m277.8 98.4c1.2 3.3 1.8 8.2 1.5 10.2-0.9 7.3-5.5 16.4-5.9 16.6-0.3 0.3-3 1.1-6.1 1-3.1-0.1-15.8-5.6-18.1-7.2-2.2-1.6-6.5-7.9-6.5-7.9 0 0-7.7-5.9-8.5-16.7-0.9-10.8 7.8-20.6 19.1-21.3 11.3-0.7 18.2 6.7 19.6 9.6 1.5 2.8 3.8 8.2 4.2 9.7 0.3 1.5 0.2 4.4 0.7 6z"/><path class="k" d="m243.5 108c0 0 1.9-2.3 1.9-2.8 0-0.4-1.1-5.9-1-5.9 0.1-0.1 2.8-5.9 2.7-6.7-0.1-0.8-1.1-6.4-0.8-6.9 0.2-0.5 2.5-2.5 3.2-2.5 0.7-0.1 16.2 1.1 18 0.9 1.8-0.1 5.4-1.4 5.4-1.4 0 0 2.3-2.9 2-10.8-0.8 0.4-3.1 2.3-3.1 2.3 0-2-1.7-6.8-1.7-6.8l-1.3 2.1c0 0-2-7.4-6.8-8.5-0.8 5.4-2.3 7.3-2.3 7.3l-0.4-1.2c0 0-4.8 0.9-8.1 2.8 0.4-2.2-2.1-3.6-2.1-3.6-1.7 3.1-8.2 7.4-9.9 9.7 0 0-0.5-1.3-1.1-2.1-1.8 3-5.9 7.7-6.3 10.2-0.4 2.4-0.2 4.3-0.2 4.3 0 0-1.9 3.9-1.2 7.1 0.6 3.2 5.4 11.5 5.4 11.5z"/><path class="j" d="m241 100.7c0 0-3.7-2.7-5.1-2.2-1.4 0.4-2.5 3.3-1.7 6.2 0.8 2.8 5 6.8 5.5 7.2 1.2 0.8 3.7 0.3 4.3 1.1l1.7-0.6z"/><path class="l" d="m261.2 94.9c1.4 0.4 2.4 1.9 2.5 3.5-1.2 1.4-2.7 2-4.8 1.6-2.1-0.5-3.3-2.7-3.3-2.7 0 0 1.6-3.5 5.6-2.4z"/><path class="m" d="m259.7 94.5c1.3 0 2.4 1.2 2.4 2.7 0 1.5-1.1 2.7-2.4 2.7-1.3 0-2.4-1.2-2.4-2.7 0-1.5 1.1-2.7 2.4-2.7z"/><path class="l" d="m277.3 96.2c0 1.2-0.1 3.1-1.9 3.1-1.8 0.1-2.2-0.7-2.2-0.7 0 0-0.5-1.8 0.4-2.9 0.8-1.1 2.6-1 3.7 0.5z"/><path class="m" d="m275.3 95.1c0.9 0 1.7 0.9 1.7 2 0 1.2-0.8 2.1-1.7 2.1-0.9 0-1.6-0.9-1.6-2.1 0-1.1 0.7-2 1.6-2z"/><path class="n" d="m264.2 97.7c0 0-2.1-3-4.9-2.6-2.8 0.3-3.6 2.7-3.6 2.7l-1.3-0.7c0 0 1.4-2.8 4.8-3 3.4-0.2 5 3.6 5 3.6z"/><path class="n" d="m272.8 98c0 0 0.5-2.5 2.2-2.7 1.4-0.1 2.3 1.4 2.3 1.4l0.4-0.7c0 0-1-1.7-3-1.4-2 0.4-1.9 3.4-1.9 3.4z"/><path class="n" d="m264.6 93.5c0 0-3.6-1.7-5-2-1.3-0.3-3-0.2-4.7 0.6 0 0 1.6-1.5 4.1-1.7 2.6-0.1 4.3 0.6 4.7 0.9 0.8 0.6 0.9 1.2 0.9 2.2z"/><path class="n" d="m272.4 93.1c0 0-0.2-1.5 0.8-2.2 0.9-0.6 3.1-0.6 3.1-0.6l0.3 0.6c0 0-2.6 0.5-4.2 2.2z"/><path class="o" d="m272.8 105.6c0 0-1.5 2.5-1.6 2.7 0 0.3-0.5 0.6-0.8 0.6-0.3-0.1-0.5-0.8-1.1-0.8-0.6 0-2.3 0.2-2.1-0.3 0.2-0.5 1.7-1.6 2.9-2.1 1.4-0.5 2.7-0.8 2.7-0.1z"/><path class="p" d="m270.1 98.5c0 0-0.4 3 1 5 1.1 1.6 1.3 1.9 1.1 2.6-0.2 0.6-1 1.4-1 2.2 0 0 0.8-0.8 1.1-1.2 0.3-0.4 1.3-1 1-1.9-0.2-0.9-2.7-2.5-3.2-6.7z"/><path class="q" d="m269.7 107.7c0 0 0.5-0.7 0.1-0.9-0.4-0.2-1.2 0.4-2.1 1.1 0 0 1.6-0.6 2-0.2z"/><path class="r" d="m273.9 114c0 0 0.2 0.8-0.3 0.8-0.6 0.1-4.1-0.8-7.6-1.5-3.6-0.7-7.2-1.3-7.8-1.6-0.6-0.4-0.9-1.1-0.6-1.2 0.3-0.1 1 0.4 1.2 0.5 0.2 0.2 0.6 0.3 1.3 0.6 0.7 0.3 5.6 1.4 8.9 2.1 2.4 0.5 4 0.6 4.3 0.6 0.2-0.1 0.3-0.4 0.6-0.3z"/><path class="o" d="m265.5 117c0 0 2.4-1.5 3.3-1.1 0.9 0.5 0.8 1.6 0.5 1.8-0.2 0.2-4.7 0.8-3.8-0.7z"/><path class="d" d="m197.3 120.2c0.2 10.2 4.8 21.4 7.5 28.1 2.7 6.6 11.5 18.1 11.5 18.1l6.6-0.6-3-36.4z"/><path class="j" d="m225.6 161.3c0 0-28.2-5.5-42.1-8.4-14-2.9-18.3-2.8-20.1-3.9-1.8-1.1-17.8-15.5-24.9-27.5-7.2-11.9-21.6-35.6-21.6-35.6 0 0-3.8-2.2-5.5-5.8-1.6-3.6-2.2-4.8-3-5.7-0.8-1-2-2.5-1.7-3.2 0.2-0.7 3.7-6.2 5.3-8.2 1.6-2 4.3-3.8 4.9-3.8 0.6-0.1 5.2 4.7 7.2 9 2 4.4 2.1 6.6 3.2 10.6 1.2 4 3.6 9.1 12.8 19.3 9.3 10.1 21 15.8 26.3 21.2 5.2 5.4 8.5 11.3 9.7 11.7 1.3 0.5 12.3-0.3 18.5-0.5 6.2-0.2 18.9 0.2 18.9 0.2z"/><path class="e" d="m118.7 60.7c1.6 1.6 3.6 4.2 5 6.8l-4.2 6.6c-2.8-6-1.4-11.5-0.8-13.4z"/><path class="e" d="m200.8 130.4c6.1 0.1 12.7 0.3 12.7 0.3l12.1 30.6c0 0-10.5-2.1-21.9-4.3 1-12.3-1.8-22.9-2.9-26.6z"/><path class="j" d="m121.1 79.6c0 0-2.4-5.9-2.1-10.4 0.4-4.6 1.8-6.1 1.7-7-0.1-0.9-0.3-1.6-0.6-1.9-0.3-0.2-2.2-2.1-2.7-3.9-0.5-1.8-0.8-4.1 0.1-4.5 0.8-0.4 2.6 2.1 4 3.2 1.4 1.1 1.9 1.5 2.4 2.8 0.6 1.3 2.7 5.2 3.5 8.7 0.7 3.5-0.5 10.1-0.1 12.2 0.5 2.2-4.8 4.5-6.2 0.8z"/><path class="j" d="m117.8 59.8c0 0-3.5-2.6-5.5-4.2-1.9-1.5-2.3-1.5-3.3-1.8-0.9-0.3-2.8-0.3-4.5-1-1.8-0.6-3-1.6-3.4-1.3-0.3 0.2-0.5 2.1 1 3.3 1.6 1.3 4.8 2 5.6 2.2 0.9 0.3 1.9 1.1 2.2 1.4 0.3 0.3 2.6 2.7 3.8 3.4 1.2 0.7 4.1-2 4.1-2z"/><path class="j" d="m111.8 65.5c0 0-4.1-1.5-6.4-2.4-2.4-0.9-2.8-0.7-3.7-0.7-1 0-2.8 0.5-4.7 0.4-1.9-0.1-3.3-0.6-3.6-0.3-0.2 0.3 0.1 2.2 2 2.9 1.9 0.8 5.1 0.5 6 0.5 0.9 0 2.1 0.4 2.5 0.6 0.3 0.2 3.3 1.8 4.7 2.1 1.3 0.3 3.2-3.1 3.2-3.1z"/><path class="j" d="m115 62.1c0 0-4.3-1.9-6.7-3.1-2.5-1.2-2.9-1.1-3.9-1.2-1.1-0.1-3.1 0.2-5.1-0.1-2.1-0.3-3.6-1-3.8-0.6-0.3 0.3-0.2 2.3 1.8 3.3 1.9 1 5.4 1 6.4 1.1 0.9 0.1 2.2 0.7 2.6 0.9 0.3 0.3 3.4 2.4 4.8 2.8 1.4 0.5 3.9-3.1 3.9-3.1z"/><path class="j" d="m107.4 71.9c0 0-3-0.4-3.8-0.3-0.7 0-2.8 2-3.7 2.2-0.8 0.3-2.5 0.3-2.5-0.2 0.1-0.5 1-1.5 1.8-2.8 0.9-1.2 2.3-2 2.7-2.2 0.4-0.2 4.9-0.8 8 0.3z"/><path class="j" d="m294.1 161.9c14.5-2.2 40.6-2.7 42.1-3.9 1.4-1.2 8.8-15.2 13.3-26.7 4.6-11.5 13.8-34.4 13.8-34.4 0 0 3.1-2.4 4-5.8 0.9-3.5 1.2-4.6 1.8-5.5 0.6-0.9 1.4-2.5 1.1-3.1-0.3-0.5-4.2-4.9-5.9-6.4-1.6-1.5-4.3-2.7-4.8-2.6-0.6 0-3.9 4.8-5 8.9-1.2 4.1-0.9 6.2-1.4 9.8-0.4 3.7-1.7 8.5-8.4 18.8-6.7 10.2-11.4 13.1-15.2 18.5-3.9 5.5-4.6 9.3-5.6 9.9-1.1 0.5-24.6-4.8-30.1-4.1 0.5 6.5-0.6 16 0.3 26.6z"/><path class="e" d="m304.3 136.2c3.8 3.8 10.1 11.4 14 23.5-8.1 0.5-17.4 1.2-24.2 2.2-0.9-10.6 0.2-20.1-0.3-26.6 1.9-0.3 6 0.2 10.5 0.9z"/><path class="e" d="m358.1 75.1c-1.1 1.6-2.6 4.2-3.4 6.6l4.7 5.2c1.6-5.6-0.5-10.3-1.3-11.8z"/><path class="j" d="m358.7 92c0 0 1.3-5.5 0.4-9.4-1-4-2.5-5.1-2.5-5.9-0.1-0.8 0-1.5 0.2-1.7 0.2-0.3 1.7-2.3 1.9-3.9 0.2-1.6 0-3.7-0.8-3.9-0.8-0.3-2 2.2-3 3.4-1.1 1.1-1.5 1.5-1.8 2.8-0.3 1.2-1.6 5-1.7 8.1-0.2 3.2 1.8 8.8 1.7 10.7 0 2 4.9 3.3 5.6-0.2z"/><path class="j" d="m358.8 74.1c0 0 2.7-2.7 4.2-4.4 1.5-1.6 1.8-1.7 2.6-2.1 0.8-0.3 2.4-0.7 3.9-1.5 1.5-0.8 2.4-1.8 2.7-1.7 0.3 0.2 0.8 1.8-0.4 3.2-1.2 1.3-3.8 2.3-4.6 2.7-0.7 0.3-1.5 1.2-1.7 1.5-0.2 0.3-1.9 2.8-2.9 3.5-0.9 0.8-3.8-1.2-3.8-1.2z"/><path class="j" d="m364.8 78.3c0 0 3.4-1.9 5.4-3 1.9-1.1 2.3-1.1 3.1-1.2 0.9-0.1 2.5 0 4.2-0.3 1.6-0.4 2.8-1 3.1-0.8 0.2 0.3 0.2 2-1.3 2.9-1.6 0.9-4.4 1.1-5.2 1.2-0.8 0.1-1.9 0.7-2.1 0.9-0.3 0.2-2.7 2.1-3.8 2.6-1.2 0.4-3.4-2.3-3.4-2.3z"/><path class="j" d="m361.6 75.8c0 0 3.5-2.3 5.4-3.7 2-1.5 2.4-1.4 3.3-1.7 0.9-0.2 2.7-0.2 4.5-0.7 1.7-0.6 2.9-1.4 3.2-1.2 0.3 0.3 0.5 2.1-1.1 3.2-1.6 1.2-4.6 1.7-5.5 1.9-0.8 0.2-1.9 1-2.1 1.2-0.3 0.3-2.7 2.5-3.9 3.1-1.2 0.6-3.8-2.1-3.8-2.1z"/><path class="j" d="m369.6 83.3c0 0 2.7-0.8 3.3-0.9 0.7 0 2.8 1.4 3.6 1.5 0.7 0.1 2.3-0.1 2.2-0.5-0.2-0.5-1.1-1.3-2-2.2-1-1-2.3-1.5-2.7-1.6-0.4-0.2-4.4 0-6.9 1.4z"/><path class="s" d="m245.7 128.1c0 0 30.9 0.6 31.3 1.1 0.5 0.4 2.8 2.6 2.8 2.6 0 0 12.6-3.6 13.2-3.4 0.6 0.2 12.8 10 18 32.1 4.3 9.6 18.2 29.8 23.6 45.7 11.3 19.3 19.8 30.7 13.5 37.4-0.2-5.5-5.4-17.8-29.7-14.8-24.3 2.9-53.1 9.5-60.5 6.6-7.4-2.8-7.4-7.6-7.4-7.6 0 0 10.4-3.9 13.5-8.7-12.1-27-26.3-44-26.3-44l-21.4-8.7c0 0 1.6-24.7-19-46.2 0 0 10.9 1.6 29.2 7.2 0 0 1.3-2.1 2.8-1.8 1.6 0.3 16.4 2.5 16.4 2.5z"/><path class="t" d="m311 160.5c0 0-9.3-10.9-16.6-18.2 0 0 7.8 5.5 15 12.4 0 0 1.1 3.1 1.6 5.8z"/><path class="t" d="m279.8 131.8l4.5 3.5-2.9-4z"/><path class="t" d="m238.2 174.1c0 0 0.2-0.4 0.5-1.1q0.2-0.6 0.5-1.3c0.1-0.6 0.3-1.1 0.5-1.8q0.1-1 0.3-2.1c0.2-0.8 0.2-1.6 0.3-2.4 0-0.8 0.1-1.7 0.1-2.6q0-1.3 0-2.6c-0.1-0.9-0.1-1.8-0.2-2.7q-0.2-1.3-0.4-2.5-0.2-1.2-0.4-2.3-0.3-1.1-0.6-2.1c-0.4-1.3-0.7-2.3-0.9-3.1-0.3-0.7-0.4-1.1-0.4-1.1 0 0 0 0.4 0.1 1.2 0.1 0.8 0.2 1.9 0.4 3.2q0.1 0.9 0.3 2 0.1 1.2 0.2 2.4 0.1 1.2 0.2 2.5c0.2 0.8 0.1 1.7 0.2 2.5q0 1.3 0.1 2.6-0.1 1.3-0.1 2.5c0 0.8 0 1.6-0.1 2.3q-0.1 1.2-0.2 2.1-0.1 1-0.2 1.8-0.1 0.8-0.3 1.3c0 0.4-0.1 0.7-0.1 0.9q-0.1 0.3-0.1 0.3z"/><path class="u" d="m317 143.2c-10.7-1-19.5-27-37.7-34.4"/><path class="l" d="m237.2 107.3c0.5 1.4 1.7 2.2 2.7 1.8 0.9-0.3 1.2-1.7 0.7-3.1-0.5-1.4-1.7-2.2-2.7-1.8-0.9 0.3-1.2 1.7-0.7 3.1z"/><path class="l" d="m240 107.8c0 0 0.1 2.1 1.1 3 0 0-0.1 0.3-0.8 0.4 0 0-2-1.8-2.8-3.4z"/><path class="u" d="m240.4 110.5c11.3 17.7 38.9 33.5 68.1 33 29.3-0.6 61.6-6.9 80.3 4.5 21.5 13.1 23.9 45.2 2.7 61"/><path class="v" d="m355.5 229l-0.2-2.4 1.9-0.8 18-24.6c0.8-1.1 2.2-1.3 3.3-0.5l14 10.2 1.4-0.6 0.2 2.8c0 0.5-0.1 1.1-0.5 1.5l-19.2 26.4c-0.8 1.1-2.2 1.3-3.3 0.5l-14.6-10.7c-0.6-0.4-1-1.1-1-1.8z"/><path class="l" d="m375.2 201.2c0.8-1.1 2.2-1.3 3.3-0.5l14 10.2 1.4-0.6v0.5c0 0.5-0.1 1-0.4 1.5l-19.3 26.4c-0.8 1-2.2 1.3-3.3 0.5l-14.6-10.7c-0.6-0.5-1-1.1-1-1.8v-0.1l1.9-0.8z"/><path class="w" d="m355.7 224.9c-0.7 1-0.5 2.4 0.5 3.2l14.7 10.7c1 0.8 2.5 0.6 3.2-0.5l19.3-26.3c0.8-1.1 0.6-2.5-0.5-3.3l-14.6-10.7c-1.1-0.8-2.5-0.5-3.3 0.5z"/><path class="x" d="m358.1 225.1l15.1 11 17.8-24.4-15.1-11z"/><path class="y" d="m376 201.6l-17.4 23.8-0.5-0.3 17.8-24.4 15.1 11-0.4 0.6z"/></svg>