<svg version="1.1" xmlns="http://www.w3.org/2000/svg" xmlns:xlink="http://www.w3.org/1999/xlink" xml:space="preserve" viewBox="386.62 84.68 253.58 416.33">



<path d=" M487.274475,227.796265   C461.060577,213.882462 435.257080,199.978561 409.243988,186.478653   C394.135345,178.637802 387.320770,165.953156 386.966461,149.650879   C386.528534,129.501099 386.817322,109.335350 386.823029,89.176514   C386.823425,87.731873 386.420105,86.159309 387.655457,84.873741   C389.689514,84.178459 391.095093,85.651176 392.650665,86.464188   C431.022827,106.519669 469.410583,126.545891 507.704071,146.750656   C511.905548,148.967484 515.199890,149.277359 519.612000,146.923035   C557.222473,126.854042 594.977600,107.056053 632.707581,87.211380   C634.585388,86.223717 636.301392,84.726044 638.608704,84.796669   C640.284546,85.756210 639.958984,87.377983 639.963440,88.823555   C640.023499,108.482063 640.034607,128.140732 640.103394,147.799210   C640.153870,162.201050 635.122437,174.373535 623.323425,182.839233   C617.149109,187.269226 610.036743,190.411087 603.279480,194.005951   C575.199524,208.944702 547.062866,223.777557 519.033081,238.809662   C515.262756,240.831650 512.173096,241.063797 508.381775,238.889114   C501.598633,234.998291 494.540253,231.587296 487.274475,227.796265  z" fill="#54BF59"/><path d=" M545.347473,263.279510   C576.624573,246.591415 607.575928,230.078751 638.266235,213.705368   C640.671570,215.563934 640.118591,217.521057 640.120422,219.275360   C640.140564,238.106476 640.062805,256.937805 640.126709,275.768707   C640.192749,295.234131 632.007812,309.371857 614.472046,318.553284   C582.313782,335.390869 550.412903,352.722046 518.496399,370.016663   C515.291748,371.753204 512.787720,371.785675 509.704834,370.127258   C475.379211,351.661865 440.895691,333.485779 406.720947,314.746185   C394.119568,307.836212 387.496155,296.068451 387.046692,281.901306   C386.375916,260.757690 386.831360,239.578140 386.837616,218.413864   C386.838013,217.111832 387.099731,215.809860 387.238647,214.519043   C390.264679,213.345383 392.250122,215.328461 394.316559,216.425583   C419.768951,229.938660 445.159943,243.567230 470.597778,257.107880   C483.828125,264.150452 497.143677,271.033081 510.362854,278.096375   C512.949219,279.478333 515.029053,279.678711 517.757202,278.137787   C526.743042,273.062347 535.918884,268.323242 545.347473,263.279510  z" fill="#9B9B9B"/><path d=" M634.100098,431.956787   C630.137146,439.257294 624.408630,444.214691 617.487549,447.855804   C584.786133,465.059723 552.037354,482.174042 519.390747,499.481171   C515.576050,501.503510 512.488647,501.511108 508.697876,499.506165   C475.585052,481.992767 442.414551,464.587799 409.211334,447.246063   C394.592133,439.610596 387.666534,426.894745 387.056183,411.207581   C386.260193,390.749542 386.845825,370.237579 386.852722,349.748840   C386.853149,348.445801 386.728729,347.069580 387.841797,346.004700   C390.097137,345.441895 391.668823,346.974213 393.347290,347.864838   C430.259125,367.450562 467.270264,386.856415 503.926880,406.909882   C511.421265,411.009827 516.929749,410.850494 524.336548,406.782196   C560.527832,386.903595 597.064697,367.653992 633.493958,348.209351   C635.218018,347.289093 636.854065,346.016937 638.947754,346.098663   C640.523071,346.945404 640.125732,348.398224 640.124451,349.664001   C640.104431,369.319794 640.080017,388.975677 640.014587,408.631378   C639.987549,416.756775 638.272034,424.484253 634.100098,431.956787  z" fill="#158BEA"/></svg>